<svg xmlns="http://www.w3.org/2000/svg" viewBox="0 0 200 200" fill="none" role="img" aria-label="Portal Services Digital">
  <defs>
    <linearGradient id="psd-mark" x1="20%" y1="0%" x2="80%" y2="100%">
      <stop offset="0%" stop-color="#3DC5F0"/>
      <stop offset="45%" stop-color="#2563EB"/>
      <stop offset="100%" stop-color="#1D4ED8"/>
    </linearGradient>
  </defs>
  <!-- P with stem + bowl -->
  <path
    fill="url(#psd-mark)"
    d="
      M 30 30
      L 30 180
      L 70 180
      L 70 120
      L 110 120
      C 150 120, 170 100, 170 75
      C 170 50, 150 30, 110 30
      Z
      M 70 60
      L 105 60
      C 125 60, 135 65, 135 75
      C 135 85, 125 90, 105 90
      L 70 90
      Z
    "
  />
  <!-- S echo counter -->
  <path
    fill="url(#psd-mark)"
    opacity="0.65"
    d="
      M 95 100
      C 80 100, 75 110, 80 125
      C 85 135, 100 138, 115 140
      L 115 115
      C 110 110, 102 105, 95 100
      Z
    "
  />
</svg>
